HIERARCHY
ROOT Hips
{
  OFFSET 7.333 -26.027 -164.856
  CHANNELS 6 Xposition Yposition Zposition Zrotation Xrotation Yrotation
  JOINT LeftUpLeg
  {
    OFFSET 10.092 0.000 0.000
    CHANNELS 3 Zrotation Xrotation Yrotation
    JOINT LeftLeg
    {
      OFFSET 0.000 -38.160 -0.000
    CHANNELS 3 Zrotation Xrotation Yrotation
      JOINT LeftFoot
      {
        OFFSET -0.000 -24.040 0.000
    CHANNELS 3 Zrotation Xrotation Yrotation
        End Site
        {
          OFFSET -0.000 0.000 12.945
        }
      }
    }
  }
  JOINT RightUpLeg
  {
    OFFSET -10.092 -0.000 0.000
    CHANNELS 3 Zrotation Xrotation Yrotation
    JOINT RightLeg
    {
      OFFSET 0.000 -33.046 0.000
    CHANNELS 3 Zrotation Xrotation Yrotation
      JOINT RightFoot
      {
        OFFSET 0.000 -22.031 -0.000
    CHANNELS 3 Zrotation Xrotation Yrotation
        End Site
        {
          OFFSET 0.000 -0.000 11.863
        }
      }
    }
  }
  JOINT Spine
  {
    OFFSET -0.000 16.511 0.000
    CHANNELS 3 Zrotation Xrotation Yrotation
    JOINT LeftShoulder
    {
      OFFSET 0 16.511 0
    CHANNELS 3 Zrotation Xrotation Yrotation
      JOINT LeftArm
      {
        OFFSET 16.337 0.000 0.000
    CHANNELS 3 Zrotation Xrotation Yrotation
        JOINT LeftForeArm
        {
          OFFSET 0.000 -24.030 0.000
    CHANNELS 3 Zrotation Xrotation Yrotation
          JOINT LeftHand
          {
            OFFSET 0.000 -17.629 -0.000
    CHANNELS 3 Zrotation Xrotation Yrotation
            End Site
            {
              OFFSET 0.000 -11.753 -0.000
            }
          }
        }
      }
    }
    JOINT RightShoulder
    {
      OFFSET 0 16.511 0
    CHANNELS 3 Zrotation Xrotation Yrotation
      JOINT RightArm
      {
        OFFSET -16.337 0.000 0.000
    CHANNELS 3 Zrotation Xrotation Yrotation
        JOINT RightForeArm
        {
          OFFSET -0.000 -19.534 0.000
    CHANNELS 3 Zrotation Xrotation Yrotation
          JOINT RightHand
          {
            OFFSET 0.000 -19.514 -0.000
    CHANNELS 3 Zrotation Xrotation Yrotation
            End Site
            {
              OFFSET 0.000 -13.010 -0.000
            }
          }
        }
      }
    }
    JOINT Neck
    {
      OFFSET -0.000 16.511 0.000
    CHANNELS 3 Zrotation Xrotation Yrotation
      JOINT Head
      {
        OFFSET -0.000 12.493 -0.000
    CHANNELS 3 Zrotation Xrotation Yrotation
        End Site
        {
          OFFSET -0.000 8.328 -0.000
        }
      }
    }
  }
}
MOTION
Frames: 16
Frame Time: 0.0333333
0 0 0 -3.253670e-01 1.132870e-01 1.748810e+00 -6.609740e-01 9.966780e+00 1.144030e-01 1.718350e+00 -1.147910e+01 2.124400e-01 0 0 0 2.494910e+00 1.565690e+01 -6.737150e-01 4.800000e-01 -2.040610e+01 1.005720e+00 0 0 0 -1.000000e-06 0 -9.000000e-06 0 0 0 1.444440e+01 1.944670e+00 2.737350e+01 -1.903470e+01 -1.432680e-01 4.803620e+00 0 0 -2.000000e-06 0 0 0 -5.390030e+00 -3.314260e+01 8.171980e+01 -1.967600e+01 -8.904030e+00 -2.892520e+00 0 -6.617445e-24 0 2.936360e-01 -1.259590e+00 6.455000e-03 0 0 0 
0 0 0 1.876360e-01 2.082750e-01 1.843590e+00 -1.371210e+00 1.000620e+01 2.382960e-01 1.956980e+00 -1.203360e+01 1.264820e-01 0 0 0 1.713460e+00 1.519350e+01 -4.491940e-01 9.386830e-01 -1.989500e+01 8.826710e-01 0 0 0 -1.000000e-06 0 8.000000e-06 0 0 0 1.402380e+01 1.459390e+00 2.657090e+01 -1.851720e+01 4.202630e-01 5.026710e+00 0 0 -1.323489e-23 0 0 0 -6.750570e+00 -3.503890e+01 7.998220e+01 -2.960960e+01 -1.122380e+01 -6.143240e+00 0 -6.617445e-24 0 -3.935600e-02 -1.318770e+00 -9.060000e-04 0 0 0 
0 0 0 5.476650e-01 2.124470e-01 2.401320e+00 -2.274280e+00 9.700080e+00 3.833880e-01 2.746390e+00 -1.177210e+01 1.029620e-01 0 0 0 5.243240e-01 1.545600e+01 -1.397400e-01 2.159600e+00 -2.075370e+01 9.449340e-01 0 -3.238469e-08 0 -7.940934e-23 0 5.300000e-05 0 0 0 1.356640e+01 7.218070e-01 2.487580e+01 -1.857440e+01 1.700010e-01 5.027540e+00 0 2.495010e-08 -1.625000e-06 0 0 0 -7.389640e+00 -3.898370e+01 7.970310e+01 -4.040370e+01 -1.039010e+01 -8.789910e+00 1.658537e-07 6.418485e-09 7.757405e-08 -1.915130e-01 -1.319090e+00 -4.408000e-03 0 0 -3.382187e-09 
0 0 0 9.845165e-01 1.139216e+00 1.663906e+00 -2.834359e+00 8.594313e+00 4.239748e-01 2.464627e+00 -1.128095e+01 -6.617378e-02 0 0 0 -4.728140e-01 1.438763e+01 1.174760e-01 2.464590e+00 -2.086890e+01 7.159298e-01 0 -2.602024e-08 0 -2.609755e-08 0 6.199363e-05 0 0 0 1.281384e+01 2.635620e-01 2.471650e+01 -1.901141e+01 -1.099060e+00 4.677080e+00 0 2.315405e-08 NaN 0 0 0 -8.739519e+00 -4.335444e+01 7.874434e+01 -5.298132e+01 -1.256890e+01 -1.677541e+01 NaN -3.669075e-09 -1.521525e-07 -2.777200e-02 -7.646310e-01 -3.700000e-04 0 0 5.405947e-09 
0 0 0 5.771439e-01 1.951095e+00 2.148048e+00 -2.957354e+00 6.649144e+00 3.427712e-01 3.194068e+00 -9.987217e+00 4.599840e-02 0 0 0 -7.045838e-02 1.242109e+01 1.553581e-02 2.416264e+00 -1.942760e+01 7.816320e-01 0 -2.261285e-08 0 1.393654e-06 0 7.194645e-05 0 0 0 1.268476e+01 -8.544899e-01 2.094600e+01 -1.925330e+01 -3.154311e+00 4.184820e+00 0 2.620680e-08 NaN 0 0 0 -1.285246e+01 -4.697674e+01 7.423646e+01 -6.803094e+01 -1.537640e+01 -3.707132e+01 5.063513e-07 1.517453e-08 NaN 5.739392e-01 -7.565430e-01 7.613000e-03 0 0 4.207109e-09 
0 0 0 1.091136e+00 1.723410e+00 1.603219e+00 -3.801343e+00 8.300500e+00 5.494049e-01 3.931390e+00 -1.321114e+01 3.869301e-02 0 0 0 -1.351190e+00 1.263940e+01 2.956260e-01 3.965064e+00 -1.894200e+01 8.623706e-01 0 -2.705659e-08 0 NaN 0 -6.400000e-05 0 0 0 1.214396e+01 -1.642670e-01 2.432890e+01 -2.011300e+01 -4.010420e+00 3.658420e+00 0 1.661542e-07 -7.126073e-07 0 0 0 -1.379470e+01 -5.013624e+01 7.377030e+01 -7.804255e+01 -1.506530e+01 -6.064914e+01 NaN -5.618756e-07 -4.060914e-08 3.081090e-01 -5.013765e-01 2.695000e-03 0 0 -7.401905e-09 
0 0 0 1.315100e+00 1.726272e+00 1.558536e+00 -4.846216e+00 7.293120e+00 6.166690e-01 5.306686e+00 -1.131200e+01 9.881890e-02 0 0 0 -1.663292e+00 1.258694e+01 3.626688e-01 3.656920e+00 -1.887017e+01 6.582812e-01 0 -2.755505e-08 0 1.306072e-06 0 -5.991568e-06 0 0 0 1.109402e+01 -1.745606e-01 2.612341e+01 -1.928550e+01 -3.936752e+00 3.606610e+00 0 NaN -3.444649e-07 0 0 0 -1.544947e+01 -5.443044e+01 7.261899e+01 -8.578085e+01 -1.319340e+01 -9.138487e+01 NaN NaN -2.071637e-09 3.169386e-01 -2.930421e-01 1.621308e-03 0 0 3.704568e-09 
0 0 0 3.308000e-01 1.149677e+00 1.910298e+00 -3.303295e+00 7.170550e+00 4.127623e-01 4.635422e+00 -1.003436e+01 2.366986e-01 0 0 0 1.665057e-01 1.326057e+01 -3.860930e-02 2.375051e+00 -1.948045e+01 8.471165e-01 0 -2.723107e-08 0 NaN 0 1.399803e-05 0 0 0 1.168220e+01 -9.937180e-04 2.560843e+01 -1.868900e+01 -3.887823e+00 3.658056e+00 0 NaN -5.013882e-07 0 0 0 -1.641312e+01 -5.563367e+01 7.171699e+01 -9.087217e+01 -1.160980e+01 -1.176684e+02 8.484086e-07 NaN 7.821915e-08 5.781239e-01 -4.739737e-01 4.797720e-03 0 0 -6.572822e-11 
0 0 0 3.165000e-02 1.301044e+00 1.822375e+00 -3.100730e+00 7.859360e+00 4.232092e-01 4.841276e+00 -1.117694e+01 3.428805e-01 0 0 0 4.318807e-01 1.398490e+01 -1.043830e-01 2.562037e+00 -2.052819e+01 1.046270e+00 0 -2.600610e-08 0 NaN 0 -9.888277e-05 0 0 0 1.167782e+01 1.923877e-01 2.635756e+01 -1.811426e+01 -3.024822e+00 3.929831e+00 0 2.795458e-08 NaN 0 0 0 -1.642158e+01 -5.754814e+01 7.200670e+01 -9.185383e+01 -9.813636e+00 -1.270237e+02 4.545455e-07 -5.227549e-07 1.091714e-07 5.592248e-01 -3.921160e-01 3.830731e-03 0 0 -8.553174e-09 
0 0 0 -3.470330e-01 1.655770e+00 1.917688e+00 -2.003520e+00 7.490400e+00 2.614786e-01 3.630547e+00 -1.171346e+01 3.339368e-01 0 0 0 7.710642e-01 1.314060e+01 -1.752916e-01 2.960852e+00 -2.023237e+01 1.285347e+00 0 -2.968450e-08 0 -4.914385e-08 0 8.000000e-05 0 0 0 1.185324e+01 6.108748e-02 2.557279e+01 -1.734012e+01 -2.885940e+00 4.050040e+00 0 2.289576e-08 NaN 0 0 0 -1.521130e+01 -5.744040e+01 7.329600e+01 -9.131347e+01 -8.904020e+00 -1.271047e+02 NaN NaN 1.199763e-07 6.854320e-01 -3.579920e-01 4.280455e-03 0 0 -1.716552e-09 
0 0 0 -2.714824e-01 8.124770e-01 1.889653e+00 -2.050963e+00 9.768036e+00 3.480021e-01 3.458560e+00 -1.430065e+01 3.549263e-01 0 0 0 7.627064e-01 1.472770e+01 -1.942414e-01 2.920096e+00 -2.107102e+01 1.315653e+00 0 -3.342643e-08 0 5.732861e-08 0 1.800000e-05 0 0 0 1.179066e+01 1.080450e+00 2.918520e+01 -1.695581e+01 -1.295870e+00 4.286660e+00 0 1.741654e-08 -2.381927e-06 0 0 0 -1.409761e+01 -5.336480e+01 7.393070e+01 -8.590796e+01 -1.088545e+01 -9.147809e+01 NaN NaN NaN 4.390902e-01 -7.942230e-01 6.080030e-03 0 0 -2.375105e-09 
0 0 0 -4.371516e-02 4.890770e-01 1.991544e+00 -2.477564e+00 9.862200e+00 4.247106e-01 3.518153e+00 -1.325900e+01 2.469230e-01 0 0 0 4.380338e-01 1.462160e+01 -1.141829e-01 2.543940e+00 -2.009101e+01 1.019363e+00 0 NaN 0 5.649546e-07 0 5.000000e-05 0 0 0 1.184780e+01 1.266075e+00 2.967233e+01 -1.648780e+01 -2.028000e-03 4.619848e+00 0 2.394190e-08 NaN 0 0 0 -1.081079e+01 -4.966790e+01 7.713400e+01 -7.568956e+01 -9.877850e+00 -4.142980e+01 1.996402e-07 -6.572436e-08 3.174603e-08 1.549426e-01 -8.287700e-01 2.230000e-03 0 0 1.909939e-09 
0 0 0 -7.884677e-02 4.831300e-01 2.323283e+00 -2.813155e+00 9.642910e+00 4.715673e-01 4.492391e+00 -1.278840e+01 3.811848e-01 0 0 0 5.576446e-01 1.512720e+01 -1.460593e-01 2.497398e+00 -2.082350e+01 1.079813e+00 0 -3.295018e-08 0 NaN 0 4.400842e-05 0 0 0 1.272566e+01 9.730230e-01 2.704909e+01 -1.674050e+01 -1.259200e-02 4.783839e+00 0 2.592901e-08 NaN 0 0 0 -9.317380e+00 -4.787346e+01 7.863740e+01 -5.649988e+01 -9.550280e+00 -1.501040e+01 NaN -4.207479e-08 1.260434e-08 5.433800e-02 -1.243309e+00 1.179000e-03 0 0 2.608042e-08 
0 0 0 -1.927300e-01 4.596161e-01 3.401385e+00 -1.758804e+00 9.905398e+00 3.025162e-01 3.422300e+00 -1.371070e+01 4.008850e-01 0 0 0 1.494214e+00 1.547636e+01 -3.982710e-01 1.807114e+00 -2.146886e+01 1.188070e+00 0 -3.459554e-08 0 NaN 0 5.600000e-05 0 0 0 1.319050e+01 7.683700e-02 2.316213e+01 -1.751620e+01 -2.790900e-01 4.916300e+00 0 2.348473e-08 -1.828247e-06 0 0 0 -7.801800e+00 -4.374733e+01 7.977956e+01 -4.267162e+01 -8.671904e+00 -8.130960e+00 NaN 5.613851e-09 6.354960e-09 -1.374663e-01 -1.109200e+00 -2.657301e-03 0 0 -3.779784e-09 
0 0 0 -8.458459e-01 2.346419e-01 4.171602e+00 -3.692483e-01 9.986623e+00 6.479924e-02 2.553910e+00 -1.345400e+01 5.098640e-01 0 0 0 2.875387e+00 1.607346e+01 -7.969262e-01 9.797190e-01 -2.193560e+01 1.399765e+00 0 NaN 0 -9.205334e-08 0 5.500000e-05 0 0 0 1.364034e+01 -6.230139e-01 2.007690e+01 -1.753320e+01 -8.487960e-01 4.887290e+00 0 3.773585e-08 -9.980426e-08 0 0 0 -7.376800e+00 -4.011220e+01 7.966231e+01 -2.763536e+01 -7.613870e+00 -3.881163e+00 -1.215390e-07 3.342312e-08 7.633438e-08 4.975799e-02 -1.059363e+00 9.240000e-04 0 0 5.958926e-09 
0 0 0 -1.194880e+00 -1.211921e-01 4.498706e+00 6.440529e-01 1.123366e+01 -1.254781e-01 1.422542e+00 -1.515070e+01 5.367130e-01 0 0 0 3.919780e+00 1.654760e+01 -1.118000e+00 2.240400e-01 -2.186290e+01 1.484584e+00 0 -2.523876e-08 0 -4.268847e-07 0 -5.994493e-05 0 0 0 1.402460e+01 -4.540930e-01 2.010050e+01 -1.830550e+01 -1.173290e+00 4.765020e+00 0 NaN -1.284570e-07 0 0 0 -7.037763e+00 -3.670900e+01 7.948412e+01 -1.627342e+01 -7.639717e+00 -2.144306e+00 1.937591e-07 1.507362e-08 5.735619e-08 -8.980714e-02 -1.054050e+00 -1.653649e-03 0 0 1.526730e-08 
